<svg width="36" height="37" viewBox="0 0 36 37" fill="none" xmlns="http://www.w3.org/2000/svg">
<path id="path" fill-rule="evenodd" clip-rule="evenodd" d="M17.9917 0.615248H17.9882C13.3456 0.60959 8.81238 2.44898 5.49506 5.64717C0.207478 10.7232 -1.45478 18.7589 1.3438 25.5079C3.09066 29.7207 6.46569 33.207 10.6799 35.0764C15.1566 37.0621 20.3522 37.1307 24.8798 35.2552C29.1441 33.4888 32.6016 30.099 34.4563 25.9213C35.9175 22.63 36.3498 18.9261 35.7172 15.3907L31.8402 18.2464C31.8402 20.3128 31.4952 22.3299 30.6495 24.2318C29.2216 27.4426 26.5653 30.0506 23.2876 31.4102C19.8034 32.8556 15.8173 32.8029 12.3699 31.2717C9.12728 29.8314 6.53756 27.1564 5.1907 23.9129C3.74711 20.4364 3.79793 16.4403 5.32735 13.0011C6.75427 9.79254 9.40927 7.18599 12.6878 5.82575C16.9807 4.04468 21.9543 4.55463 25.7964 7.1891L29.2986 4.60904C26.132 2.04623 22.0864 0.610087 17.9917 0.615248ZM32.2413 7.612C33.097 8.71768 33.8213 9.9189 34.3997 11.1916L17.992 23.2804L11.1347 18.9841V13.8154L17.992 18.1117L32.2413 7.612Z" fill="white"/>
</svg>
